<svg width="154" height="154" viewBox="0 0 154 154" fill="none" xmlns="http://www.w3.org/2000/svg">
<path d="M10.5996 69L16.9996 73.5" stroke="#0063A7" stroke-width="1.2"/>
<path d="M17 69.0999L10.5 73.3999" stroke="#0063A7" stroke-width="1.2"/>
<path d="M13.7988 67.8V74.7" stroke="#0063A7" stroke-width="1.2"/>
<path d="M134.299 141.2L137.499 143.4" stroke="#0063A7" stroke-width="0.6"/>
<path d="M137.599 141.2L134.299 143.4" stroke="#0063A7" stroke-width="0.6"/>
<path d="M135.9 140.6V144" stroke="#0063A7" stroke-width="0.6"/>
<path d="M122.699 135.7L125.899 138" stroke="#0063A7" stroke-width="0.6"/>
<path d="M125.999 135.8L122.699 137.9" stroke="#0063A7" stroke-width="0.6"/>
<path d="M124.299 135.1V138.6" stroke="#0063A7" stroke-width="0.6"/>
<path d="M133.799 131.9L138.499 135.2" stroke="#0063A7" stroke-width="0.88"/>
<path d="M138.599 131.9L133.799 135.1" stroke="#0063A7" stroke-width="0.88"/>
<path d="M136.199 131V136" stroke="#0063A7" stroke-width="0.88"/>
<path d="M22.6992 74.2L26.5992 77" stroke="#0063A7" stroke-width="0.74"/>
<path d="M26.6996 74.2L22.5996 76.9" stroke="#0063A7" stroke-width="0.74"/>
<path d="M24.6992 73.3999V77.6999" stroke="#0063A7" stroke-width="0.74"/>
<path d="M6.79922 60.2H147.299C150.699 60.2 153.399 62.9 153.399 66.3V147.8C153.399 151.2 150.699 153.9 147.299 153.9H6.79922C3.39922 153.9 0.699219 151.2 0.699219 147.8V66.3C0.699219 62.9 3.39922 60.2 6.79922 60.2Z" fill="white"/>
<path d="M7.49961 22.5H146.4C150.2 22.5 153.3 25.6 153.3 29.4V48.1C153.3 51.9 150.2 55 146.4 55H7.49961C3.69961 55 0.599609 51.9 0.599609 48.1V29.4C0.599609 25.6 3.69961 22.5 7.49961 22.5Z" fill="#BAE3F5"/>
<path d="M5.59961 0.699951H148.3C151.1 0.699951 153.3 2.99995 153.3 5.69995V12.8C153.3 15.6 151 17.8 148.3 17.8H5.59961C2.79961 17.8 0.599609 15.5 0.599609 12.8V5.69995C0.599609 2.99995 2.79961 0.699951 5.59961 0.699951Z" fill="#0063A7"/>
<circle cx="18.5322" cy="40.4839" r="3.79996" transform="rotate(-45 18.5322 40.4839)" fill="#00B5E1"/>
<circle cx="136.299" cy="35.6999" r="2.6" fill="#00B5E1"/>
<circle cx="124.199" cy="36.4" r="1.9" fill="#00B5E1"/>
<circle cx="138.199" cy="45.7999" r="1.9" fill="#00B5E1"/>
<circle cx="28.1988" cy="43.9" r="1.9" fill="#00B5E1"/>
<circle cx="24.3004" cy="31.7999" r="1.4" fill="#00B5E1"/>
<circle cx="10.7816" cy="45.6151" r="1.89999" transform="rotate(-60.1123 10.7816 45.6151)" fill="#00B5E1"/>
<rect x="23.1992" y="60.2" width="107.8" height="77.8" fill="#0063A7"/>
<path d="M71.2996 127.1H36.4996C34.5996 127.1 33.0996 125.6 33.0996 123.7C33.0996 122.2 34.0996 120.9 35.4996 120.4L68.7996 110H36.4996C34.5996 110 33.0996 108.5 33.0996 106.6C33.0996 105.1 34.0996 103.8 35.4996 103.3L68.7996 92.8H36.4996C34.5996 92.8 33.0996 91.3 33.0996 89.4C33.0996 87.9 34.0996 86.6 35.4996 86.1L68.7996 75.6H33.8996V72.2H68.7996C70.6996 72.2 72.1996 73.7 72.1996 75.6C72.1996 77.1 71.1996 78.4 69.7996 78.9L36.4996 89.4H68.7996C70.6996 89.4 72.1996 90.9 72.1996 92.8C72.1996 94.3 71.1996 95.6 69.7996 96.1L36.4996 106.6H68.7996C70.6996 106.6 72.1996 108.1 72.1996 110C72.1996 111.5 71.1996 112.8 69.7996 113.3L36.4996 123.8H71.2996" fill="white"/>
<path d="M120.399 127.1H85.5992C83.6992 127.1 82.1992 125.6 82.1992 123.7C82.1992 122.2 83.1992 120.9 84.5992 120.4L117.899 109.9H85.5992C83.6992 109.9 82.1992 108.4 82.1992 106.5C82.1992 105 83.1992 103.7 84.5992 103.2L117.899 92.6999H85.5992C83.6992 92.6999 82.1992 91.1999 82.1992 89.2999C82.1992 87.7999 83.1992 86.4999 84.5992 85.9999L117.899 75.4999H82.9992V72.0999H117.899C119.799 72.0999 121.299 73.5999 121.299 75.4999C121.299 76.9999 120.299 78.2999 118.899 78.7999L85.5992 89.2999H117.899C119.799 89.2999 121.299 90.7999 121.299 92.6999C121.299 94.1999 120.299 95.4999 118.899 95.9999L85.5992 106.5H117.899C119.799 106.5 121.299 108 121.299 109.9C121.299 111.4 120.299 112.7 118.899 113.2L85.5992 123.6H120.399" fill="white"/>
</svg>
