<svg width="154" height="175" viewBox="0 0 154 175" fill="none" xmlns="http://www.w3.org/2000/svg">
<path d="M10.291 89.8101L16.711 94.3201" stroke="#0063A7" stroke-width="1.2"/>
<path d="M16.7705 89.8901L10.2305 94.2401" stroke="#0063A7" stroke-width="1.2"/>
<path d="M13.5 88.6401V95.4401" stroke="#0063A7" stroke-width="1.2"/>
<path d="M134.041 161.99L137.261 164.24" stroke="#0063A7" stroke-width="0.6"/>
<path d="M137.281 162.03L134.021 164.2" stroke="#0063A7" stroke-width="0.6"/>
<path d="M135.65 161.4V164.8" stroke="#0063A7" stroke-width="0.6"/>
<path d="M122.432 156.53L125.652 158.78" stroke="#0063A7" stroke-width="0.6"/>
<path d="M125.67 156.57L122.41 158.74" stroke="#0063A7" stroke-width="0.6"/>
<path d="M124.041 155.94V159.34" stroke="#0063A7" stroke-width="0.6"/>
<path d="M133.521 152.68L138.231 155.98" stroke="#0063A7" stroke-width="0.88"/>
<path d="M138.27 152.74L133.48 155.93" stroke="#0063A7" stroke-width="0.88"/>
<path d="M135.871 151.82V156.8" stroke="#0063A7" stroke-width="0.88"/>
<path d="M22.3809 94.97L26.3609 97.76" stroke="#0063A7" stroke-width="0.74"/>
<path d="M26.3916 95.02L22.3516 97.71" stroke="#0063A7" stroke-width="0.74"/>
<path d="M24.3711 94.24V98.45" stroke="#0063A7" stroke-width="0.74"/>
<rect x="0.400391" y="72.0601" width="152.8" height="102.69" rx="6.42" fill="white"/>
<rect x="0.300781" y="34.8999" width="152.8" height="32.6" rx="6.93" fill="#BAE3F5"/>
<path d="M37.6914 9.48999V26.18" stroke="#0063A7" stroke-width="6"/>
<path d="M48.6317 10.95H26.7617L37.6917 0.0200195L48.6317 10.95Z" fill="#0063A7"/>
<path d="M76.5 9.48999V26.18" stroke="#0063A7" stroke-width="6"/>
<path d="M87.4303 10.95H65.5703L76.5003 0.0200195L87.4303 10.95Z" fill="#0063A7"/>
<path d="M115.311 9.48999V26.18" stroke="#0063A7" stroke-width="6"/>
<path d="M126.241 10.95H104.371L115.311 0.0200195L126.241 10.95Z" fill="#0063A7"/>
<circle cx="18.2173" cy="52.8306" r="3.79" transform="rotate(-45 18.2173 52.8306)" fill="#00B5E1"/>
<circle cx="136.02" cy="48.0399" r="2.6" fill="#00B5E1"/>
<circle cx="123.901" cy="48.7699" r="1.87" fill="#00B5E1"/>
<circle cx="137.901" cy="58.14" r="1.87" fill="#00B5E1"/>
<circle cx="27.9013" cy="56.2799" r="1.87" fill="#00B5E1"/>
<circle cx="24.0402" cy="44.17" r="1.38" fill="#00B5E1"/>
<circle cx="10.4974" cy="58.02" r="1.87644" transform="rotate(-60.1135 10.4974 58.02)" fill="#00B5E1"/>
</svg>
