<svg width="154" height="173" viewBox="0 0 154 173" fill="none" xmlns="http://www.w3.org/2000/svg">
<path d="M146.17 172.56H7.17C3.35 172.56 0.25 169.89 0.25 166.56V78.5099C0.25 74.8699 4.02 72.0799 8.2 72.6299C53.6589 78.5049 99.6862 78.4847 145.14 72.5699C149.31 72.0399 153.05 74.8299 153.05 78.4599V166.6C153.09 169.9 150 172.56 146.17 172.56Z" fill="#BAE3F5"/>
<path d="M146.079 68.0001C100.289 74.7001 54.0791 74.4301 7.35906 67.9501C3.31509 67.4006 0.296861 63.9512 0.289062 59.8701V43.2501C0.295829 40.829 1.37731 38.536 3.24115 36.9909C5.10499 35.4457 7.55873 34.808 9.93906 35.2501C54.0667 43.3913 99.3114 43.3913 143.439 35.2501C145.819 34.808 148.273 35.4457 150.137 36.9909C152.001 38.536 153.082 40.829 153.089 43.2501V60.0001C153.046 64.0309 150.069 67.4279 146.079 68.0001Z" fill="#0063A7"/>
<path d="M11.8691 86.45L18.2891 90.96" stroke="#0063A7" stroke-width="1.2"/>
<path d="M18.3405 86.53L11.8105 90.88" stroke="#0063A7" stroke-width="1.2"/>
<path d="M15.0801 85.28V92.08" stroke="#0063A7" stroke-width="1.2"/>
<path d="M135.619 158.63L138.829 160.88" stroke="#0063A7" stroke-width="0.6"/>
<path d="M138.86 158.67L135.6 160.84" stroke="#0063A7" stroke-width="0.6"/>
<path d="M137.23 158.04V161.44" stroke="#0063A7" stroke-width="0.6"/>
<path d="M124.01 153.17L127.23 155.42" stroke="#0063A7" stroke-width="0.6"/>
<path d="M127.25 153.2L123.99 155.38" stroke="#0063A7" stroke-width="0.6"/>
<path d="M125.619 152.58V155.98" stroke="#0063A7" stroke-width="0.6"/>
<path d="M135.1 149.32L139.81 152.62" stroke="#0063A7" stroke-width="0.88"/>
<path d="M139.851 149.37L135.061 152.56" stroke="#0063A7" stroke-width="0.88"/>
<path d="M137.449 148.46V153.44" stroke="#0063A7" stroke-width="0.88"/>
<path d="M23.9609 91.6101L27.9409 94.4001" stroke="#0063A7" stroke-width="0.74"/>
<path d="M27.9697 91.6499L23.9297 94.3499" stroke="#0063A7" stroke-width="0.74"/>
<path d="M25.9492 90.8799V95.0899" stroke="#0063A7" stroke-width="0.74"/>
<path d="M80.6898 4.69995H74.6898V19.93H66.7598L77.6898 30.87L88.6298 19.93H80.6898V4.69995Z" fill="white"/>
<path d="M127.441 15.48L124.821 0.469971L118.911 1.49997L121.531 16.51L113.711 17.87L126.351 26.76L135.251 14.12L127.441 15.48Z" fill="white"/>
<path d="M36.7892 1.1301L30.8792 0.100098L28.2692 15.1101L20.4492 13.7501L29.3492 26.3901L41.9892 17.5001L34.1792 16.1401L36.7892 1.1301Z" fill="white"/>
</svg>
