<svg width="166" height="144" viewBox="0 0 166 144" fill="none" xmlns="http://www.w3.org/2000/svg">
<path d="M14.1 0.699951H151.7C155.9 0.699951 159.3 4.09995 159.3 8.29995V136.2C159.3 140.4 155.9 143.8 151.7 143.8H14.1C9.9 143.8 6.5 140.4 6.5 136.2V8.29995C6.5 4.09995 9.9 0.699951 14.1 0.699951Z" fill="#BAE3F5"/>
<rect x="6.5" y="17" width="152.8" height="110.8" fill="#0063A7"/>
<path d="M3.59922 13.8999H161.699C163.599 13.8999 165.099 15.3999 165.099 17.2999V18.6999C165.099 20.5999 163.599 22.0999 161.699 22.0999H3.59922C1.69922 22.0999 0.199219 20.5999 0.199219 18.6999V17.2999C0.199219 15.4999 1.69922 13.8999 3.59922 13.8999Z" fill="white"/>
<path d="M3.39922 123.5H161.799C163.599 123.5 164.999 124.9 164.999 126.7V127.6C164.999 129.4 163.599 130.8 161.799 130.8H3.39922C1.59922 130.8 0.199219 129.4 0.199219 127.6V126.7C0.199219 124.9 1.69922 123.5 3.39922 123.5Z" fill="white"/>
<path d="M57.7992 88.7C59.6992 88.7 61.1992 90.2 61.1992 92.1C61.1992 93.6 60.1992 94.9 58.7992 95.4L25.4992 105.9H59.0992V109.3H25.5992C23.6992 109.3 22.1992 107.8 22.1992 105.9C22.1992 104.4 23.1992 103.1 24.5992 102.6L57.8992 92.1H25.5992C23.6992 92.1 22.1992 90.6 22.1992 88.7C22.1992 87.2 23.1992 85.9 24.5992 85.4L57.8992 75H25.5992C23.6992 75 22.1992 73.5 22.1992 71.6C22.1992 70.1 23.1992 68.8 24.5992 68.3L57.8992 57.8H25.5992C23.6992 57.8 22.1992 56.3 22.1992 54.4C22.1992 52.9 23.1992 51.6 24.5992 51.1L57.8992 40.6H22.8992V37.2H57.7992C59.6992 37.2 61.1992 38.7 61.1992 40.6C61.1992 42.1 60.1992 43.4 58.7992 43.9L25.5992 54.4H57.8992C59.7992 54.4 61.2992 55.9 61.2992 57.8C61.2992 59.3 60.2992 60.6 58.8992 61.1L25.5992 71.6H57.8992C59.7992 71.6 61.2992 73.0999 61.2992 75C61.2992 76.5 60.2992 77.7999 58.8992 78.2999L25.5992 88.7999L57.7992 88.7Z" fill="white"/>
<path d="M100.499 88.6999C102.399 88.6999 103.899 90.1999 103.899 92.0999C103.899 93.5999 102.899 94.8999 101.499 95.3999L68.1988 105.9H101.799V109.3H68.1988C66.2988 109.3 64.7988 107.8 64.7988 105.9C64.7988 104.4 65.7988 103.1 67.1988 102.6L100.499 92.0999H68.1988C66.2988 92.0999 64.7988 90.5999 64.7988 88.6999C64.7988 87.1999 65.7988 85.8999 67.1988 85.3999L100.499 74.8999H68.1988C66.2988 74.8999 64.7988 73.3999 64.7988 71.4999C64.7988 69.9999 65.7988 68.6999 67.1988 68.1999L100.499 57.6999H68.2988C66.3988 57.6999 64.8988 56.1999 64.8988 54.2999C64.8988 52.7999 65.8988 51.4999 67.2988 50.9999L100.599 40.4999H65.5988V37.0999H100.499C102.399 37.0999 103.899 38.5999 103.899 40.4999C103.899 41.9999 102.899 43.2999 101.499 43.7999L68.1988 54.3999H100.499C102.399 54.3999 103.899 55.8999 103.899 57.7999C103.899 59.2999 102.899 60.5999 101.499 61.0999L68.1988 71.5999H100.499C102.399 71.5999 103.899 73.0999 103.899 74.9999C103.899 76.4999 102.899 77.7999 101.499 78.2999L68.1988 88.7999L100.499 88.6999Z" fill="white"/>
<path d="M141.899 88.7001C143.799 88.7001 145.299 90.2 145.299 92.1C145.299 93.6 144.299 94.9 142.899 95.4L109.599 105.9H143.199V109.3H109.599C107.699 109.3 106.199 107.8 106.199 105.9C106.199 104.4 107.199 103.1 108.599 102.6L141.899 92.1H109.599C107.699 92.1 106.199 90.6001 106.199 88.7001C106.199 87.2001 107.199 85.9 108.599 85.4L141.899 74.9H109.599C107.699 74.9 106.199 73.4001 106.199 71.5C106.199 70 107.199 68.7 108.599 68.2L141.999 57.8H109.699C107.799 57.8 106.299 56.3 106.299 54.4C106.299 52.9 107.299 51.6 108.699 51.1L141.999 40.7H106.999V37.3H141.899C143.799 37.3 145.299 38.8 145.299 40.7C145.299 42.2 144.299 43.5 142.899 44L109.599 54.5H141.899C143.799 54.5 145.299 56 145.299 57.9C145.299 59.4 144.299 60.7 142.899 61.2L109.599 71.7001H141.899C143.799 71.7001 145.299 73.2 145.299 75.1C145.299 76.6 144.299 77.9 142.899 78.4L109.599 88.9L141.899 88.7001Z" fill="white"/>
</svg>
