<svg width="150" height="35" viewBox="0 0 150 35" fill="none" xmlns="http://www.w3.org/2000/svg">
  <path fill-rule="evenodd" clip-rule="evenodd" d="M133.249 10.4318C133.249 11.9253 132.056 13.1364 130.584 13.1364C129.112 13.1364 127.919 11.9253 127.919 10.4318C127.919 8.93777 129.112 7.72727 130.584 7.72727C132.056 7.72727 133.249 8.93777 133.249 10.4318Z" fill="#231F20"/>
  <path fill-rule="evenodd" clip-rule="evenodd" d="M145.169 21.6625C145.026 21.4533 144.746 21.3815 144.524 21.5045C144.104 21.736 143.808 21.8113 143.375 21.8113C142.824 21.8113 142.398 21.5706 142.398 20.688C142.398 17.7232 142.393 14.7573 142.393 11.7925C142.393 9.46716 141.374 8.32433 140.029 7.67334C139.16 7.2539 137.747 6.95454 136.619 6.95454C135.64 6.95454 134.854 6.98959 133.977 7.15277C133.741 7.19644 133.569 7.40386 133.569 7.64346V7.98705C133.569 8.2594 133.789 8.48463 134.063 8.48521C135.311 8.48866 137.456 9.10575 137.456 11.2024C137.456 11.7586 137.457 13.4616 137.458 15.3238C137.458 15.4249 137.36 15.4962 137.262 15.468C134.079 14.536 127.745 15.1888 127.923 20.3915C128 22.6628 129.529 24.7273 132.793 24.7273C134.55 24.7273 135.709 23.997 136.504 23.3581C136.67 23.2253 136.731 23.0007 136.658 22.8013L136.481 22.3181C136.396 22.0865 136.156 21.9515 135.914 21.9998C135.684 22.0457 135.426 22.0699 135.124 22.0561C133.925 22.0003 132.804 21.4355 132.804 19.3981C132.804 17.7376 133.754 16.2305 137.056 16.9257C137.29 16.9751 137.459 17.1831 137.459 17.4216C137.459 18.997 137.458 19.7055 137.458 20.9081C137.458 22.5002 138.646 24.7273 141.246 24.7273C143.643 24.7273 144.881 23.1443 145.342 22.4859C145.458 22.3192 145.462 22.0997 145.35 21.9302C145.294 21.8452 145.23 21.7516 145.169 21.6625Z" fill="#231F20"/>
  <mask id="mask0" mask-type="alpha" maskUnits="userSpaceOnUse" x="0" y="0" width="12" height="24">
    <path fill-rule="evenodd" clip-rule="evenodd" d="M0 23.675V0.347343H11.0311V23.675H0Z" fill="white"/>
  </mask>
  <g mask="url(#mask0)">
    <path fill-rule="evenodd" clip-rule="evenodd" d="M0 23.3394V23.9406C0 24.2204 0.233837 24.4477 0.521774 24.4477H7.79535C8.08389 24.4477 8.31713 24.2204 8.31713 23.9406V3.51611C8.31713 3.27014 8.49927 3.05981 8.74813 3.01715L10.5996 2.6999C10.8491 2.65725 11.0312 2.44634 11.0312 2.20036V1.62721C11.0312 1.34735 10.7974 1.12007 10.5094 1.12007H0.521774C0.233837 1.12007 0 1.34735 0 1.62721V2.22841C0 2.47321 0.179736 2.68296 0.427398 2.72736L2.0372 3.01423C2.28487 3.05864 2.4652 3.26839 2.4652 3.51319V22.0546C2.4652 22.2994 2.28487 22.5091 2.0372 22.553L0.427398 22.8404C0.179736 22.8848 0 23.0946 0 23.3394Z" fill="#231F20"/>
  </g>
  <path fill-rule="evenodd" clip-rule="evenodd" d="M17.7234 15.4545C17.4978 15.4545 17.2989 15.598 17.2311 15.8111C16.931 16.7521 16.1208 19.3005 15.7666 20.3884C15.5183 21.1517 15.0998 22.1446 12.3196 22.1446H10.4152C10.13 22.1446 9.89844 22.3743 9.89844 22.6576V23.4421C9.89844 23.7249 10.13 23.9545 10.4152 23.9545H18.5188C18.8039 23.9545 19.0355 23.7249 19.0355 23.4421V15.9669C19.0355 15.6842 18.8039 15.4545 18.5188 15.4545H17.7234Z" fill="#231F20"/>
  <path fill-rule="evenodd" clip-rule="evenodd" d="M28.6385 22.1017L30.0351 22.3712C30.281 22.4183 30.4571 22.6224 30.4571 22.8587V23.4568C30.4571 23.732 30.2209 23.9545 29.9294 23.9545H21.0862C20.7954 23.9545 20.5592 23.732 20.5592 23.4574L20.5586 22.8673C20.558 22.627 20.7401 22.4206 20.9903 22.3775L22.6218 22.0954C22.872 22.0518 23.0542 21.8459 23.0542 21.6057V10.464C23.0542 10.1681 22.7827 9.93816 22.4713 9.96912L21.3048 10.0861C20.8306 10.1343 20.5598 9.90375 20.5598 9.60785V8.76773C20.5598 8.53262 20.7335 8.32961 20.9763 8.2803L27.5 6.96536C27.6518 6.93497 27.8103 6.96938 27.933 7.05884L28.0125 7.11733C28.1412 7.21138 28.2165 7.35703 28.2165 7.51072V21.6137C28.2165 21.8505 28.3932 22.0541 28.6385 22.1017Z" fill="#231F20"/>
  <mask id="mask1" mask-type="alpha" maskUnits="userSpaceOnUse" x="22" y="0" width="7" height="6">
    <path fill-rule="evenodd" clip-rule="evenodd" d="M22.5859 0.142181L28.5391 0.142181V5.65476H22.5859V0.142181L22.5859 0.142181Z" fill="white"/>
  </mask>
  <g mask="url(#mask1)">
    <path fill-rule="evenodd" clip-rule="evenodd" d="M28.5391 2.89828C28.5391 4.42024 27.2066 5.65475 25.5625 5.65475C23.9185 5.65475 22.5859 4.42024 22.5859 2.89828C22.5859 1.37632 23.9185 0.141808 25.5625 0.141808C27.2066 0.141808 28.5391 1.37632 28.5391 2.89828Z" fill="#231F20"/>
  </g>
  <path fill-rule="evenodd" clip-rule="evenodd" d="M40.8211 22.1017L42.2183 22.3712C42.4636 22.4183 42.6397 22.6224 42.6397 22.8587V23.4568C42.6397 23.732 42.4035 23.9545 42.1126 23.9545H33.2689C32.978 23.9545 32.7424 23.732 32.7418 23.4574L32.7412 22.8673C32.7412 22.627 32.9228 22.4206 33.1735 22.3775L34.8051 22.0954C35.0552 22.0518 35.2368 21.8459 35.2368 21.6057V10.464C35.2368 10.1681 34.9654 9.93816 34.6539 9.96912L33.4881 10.0861C33.0138 10.1343 32.7424 9.90375 32.7424 9.60785V8.76773C32.7424 8.53262 32.9161 8.32961 33.1596 8.2803L39.6827 6.96536C39.8345 6.93497 39.9929 6.96938 40.1156 7.05884L40.1951 7.11733C40.3245 7.21138 40.3997 7.35703 40.3997 7.51072V21.6137C40.3997 21.8505 40.5758 22.0541 40.8211 22.1017Z" fill="#231F20"/>
  <path fill-rule="evenodd" clip-rule="evenodd" d="M50.7716 22.135C50.53 22.0883 50.3568 21.8893 50.3568 21.6571C50.3574 20.041 50.3592 13.9389 50.3592 11.722C50.3592 8.97358 49.3786 6.95454 45.6853 6.95454C44.1005 6.95454 42.3012 7.82596 41.211 9.29881C41.0887 9.46396 41.0857 9.68266 41.2038 9.85063L41.4429 10.1911C41.5952 10.4075 41.8996 10.4735 42.1388 10.3438C42.5128 10.1409 42.8922 9.98422 43.4928 9.98422C44.5483 9.98422 45.2621 10.6674 45.2621 12.3832C45.2621 15.1665 45.2627 20.2502 45.2627 21.6745C45.2627 21.8977 45.1015 22.0928 44.8713 22.148L43.8872 22.3847C43.6564 22.44 43.4952 22.635 43.4952 22.8588V23.4647C43.4952 23.7353 43.7283 23.9545 44.0154 23.9545H52.017C52.3041 23.9545 52.5367 23.7358 52.5373 23.4664C52.5373 23.2658 52.5379 23.0538 52.5385 22.878C52.5397 22.6457 52.3659 22.4451 52.1237 22.3977L50.7716 22.135Z" fill="#231F20"/>
  <path fill-rule="evenodd" clip-rule="evenodd" d="M78.8929 22.1017L80.2896 22.3712C80.5349 22.4183 80.711 22.6224 80.711 22.8587V23.4568C80.711 23.732 80.4748 23.9545 80.1845 23.9545H71.3402C71.0493 23.9545 70.8131 23.732 70.8131 23.4574L70.8125 22.8673C70.8119 22.627 70.9941 22.4206 71.2442 22.3775L72.8759 22.0954C73.1261 22.0518 73.3082 21.8459 73.3082 21.6057V10.464C73.3082 10.1681 73.0362 9.93816 72.7253 9.96912L71.5588 10.0861C71.0845 10.1343 70.8137 9.90375 70.8137 9.60785V8.76773C70.8137 8.53262 70.9874 8.32961 71.2303 8.2803L77.7544 6.96536C77.9062 6.93497 78.0647 6.96938 78.1873 7.05884L78.2669 7.11733C78.3962 7.21138 78.4715 7.35703 78.4715 7.51072V21.6137C78.4715 21.8505 78.6476 22.0541 78.8929 22.1017Z" fill="#231F20"/>
  <path fill-rule="evenodd" clip-rule="evenodd" d="M88.8418 22.135C88.6002 22.0883 88.427 21.8893 88.427 21.6571C88.4276 20.041 88.43 13.9389 88.43 11.722C88.43 8.97358 87.4488 6.95454 83.7553 6.95454C82.1705 6.95454 80.3711 7.82596 79.2808 9.29881C79.1591 9.46396 79.1561 9.68266 79.2736 9.85063L79.5128 10.1911C79.6644 10.4075 79.9695 10.4735 80.2087 10.3438C80.5833 10.1409 80.9621 9.98422 81.5621 9.98422C82.6183 9.98422 83.3327 10.6674 83.3327 12.3832V21.6745C83.3327 21.8977 83.1715 22.0928 82.9407 22.148L81.9571 22.3847C81.7264 22.44 81.5651 22.635 81.5651 22.8588V23.4647C81.5651 23.7353 81.7983 23.9545 82.086 23.9545H90.0873C90.3745 23.9545 90.607 23.7358 90.607 23.4664C90.6076 23.2658 90.6082 23.0538 90.6088 22.878C90.6094 22.6457 90.4362 22.4451 90.194 22.3977L88.8418 22.135Z" fill="#231F20"/>
  <mask id="mask2" mask-type="alpha" maskUnits="userSpaceOnUse" x="145" y="6" width="5" height="5">
    <path fill-rule="evenodd" clip-rule="evenodd" d="M149.497 6.19769V10.393H145.21V6.19769H149.497V6.19769Z" fill="white"/>
  </mask>
  <g mask="url(#mask2)">
    <path fill-rule="evenodd" clip-rule="evenodd" d="M147.354 6.62945C146.415 6.62945 145.651 7.37649 145.651 8.29565C145.651 9.21365 146.415 9.96126 147.354 9.96126C148.292 9.96126 149.056 9.21365 149.056 8.29565C149.056 7.37649 148.292 6.62945 147.354 6.62945ZM147.354 10.393C146.172 10.393 145.21 9.45184 145.21 8.29565C145.21 7.13887 146.172 6.19769 147.354 6.19769C148.535 6.19769 149.497 7.13887 149.497 8.29565C149.497 9.45184 148.535 10.393 147.354 10.393Z" fill="#231F20"/>
  </g>
  <path fill-rule="evenodd" clip-rule="evenodd" d="M147.229 8.08546L146.972 8.09485L146.867 8.13493L146.836 8.10675L146.88 8.01031V7.47429L146.836 7.37848L146.867 7.34967L146.972 7.38975L147.24 7.39914C147.685 7.39914 147.689 7.61706 147.689 7.72539C147.689 7.83372 147.685 8.08546 147.229 8.08546ZM147.902 8.50814L147.802 8.44552V8.41421L147.907 8.39167C148.169 8.28333 148.375 8.01094 148.375 7.72351C148.375 7.4004 148.239 6.95454 147.311 6.95454H146.193V9.27273H146.889L146.88 8.60833L146.836 8.51252L146.867 8.48434L146.972 8.52442L147.194 8.53319L147.689 9.27273H148.478L147.902 8.50814Z" fill="#231F20"/>
  <path fill-rule="evenodd" clip-rule="evenodd" d="M105.076 8.49972C105.076 9.78012 103.883 10.8182 102.411 10.8182C100.939 10.8182 99.7461 9.78012 99.7461 8.49972C99.7461 7.21987 100.939 6.18182 102.411 6.18182C103.883 6.18182 105.076 7.21987 105.076 8.49972Z" fill="#231F20"/>
  <path fill-rule="evenodd" clip-rule="evenodd" d="M100.354 12.9165C99.1419 12.4104 96.2489 11.8568 96.2489 10.0089C96.2489 8.22662 97.6875 7.66909 98.7059 7.56684C98.9544 7.54227 99.1419 7.32749 99.1419 7.07443V6.67913C99.1419 6.39751 98.9115 6.17187 98.6336 6.18215C96.228 6.27298 92.6396 7.81647 92.6396 11.6598C92.6396 15.6676 95.6942 16.3891 97.2718 16.942C98.0716 17.2231 101.176 17.9291 101.041 20.1387C100.988 20.9904 100.292 22.1957 98.4483 22.1957C95.8518 22.1957 95.7727 19.8656 95.8303 18.9351C95.8439 18.7174 95.7179 18.5163 95.5168 18.4387C95.248 18.3358 94.8063 18.2267 94.1375 18.2267C92.5504 18.2267 92.1318 19.3703 92.1318 20.318C92.1318 20.891 92.486 23.9545 98.3608 23.9545C101.393 23.9545 105.076 22.4853 105.076 18.2919C105.076 14.1961 101.523 13.4043 100.354 12.9165Z" fill="#231F20"/>
  <mask id="mask3" mask-type="alpha" maskUnits="userSpaceOnUse" x="107" y="6" width="19" height="28">
    <path fill-rule="evenodd" clip-rule="evenodd" d="M125.427 33.2273H107.053L107.053 6.39307H125.427V33.2273Z" fill="white"/>
  </mask>
  <g mask="url(#mask3)">
    <path fill-rule="evenodd" clip-rule="evenodd" d="M119.135 6.39307C116.644 6.39307 115.188 7.77709 114.322 8.70134C114.246 8.78247 114.114 8.72603 114.114 8.61138V7.26675C114.114 7.10918 114.044 6.95985 113.925 6.86342L113.852 6.80404C113.739 6.71173 113.594 6.67704 113.453 6.7082L107.438 8.05636C107.214 8.10693 107.053 8.31506 107.053 8.55553V9.41745C107.053 9.72083 107.304 9.95719 107.741 9.9078L108.816 9.78727C109.103 9.75552 109.353 9.99188 109.353 10.2953V30.8186C109.353 31.0656 109.186 31.2761 108.955 31.3207L107.451 31.6106C107.22 31.6547 107.052 31.8658 107.053 32.1127L107.053 32.7171C107.053 32.9993 107.271 33.2274 107.539 33.2274H115.694C115.962 33.2274 116.18 32.9987 116.18 32.7165V32.1039C116.18 31.8611 116.017 31.6523 115.791 31.6035L114.503 31.3272C114.276 31.279 114.114 31.0703 114.114 30.8275V10.7415C114.114 10.5775 114.19 10.4246 114.316 10.327C116.634 8.51613 120.421 8.80305 120.421 15.3286C120.421 21.6608 118.522 22.8185 116.625 22.2717C116.425 22.2141 116.212 22.287 116.091 22.4645L115.957 22.6615C115.827 22.8532 115.838 23.1136 115.986 23.29C116.432 23.818 117.35 24.6828 118.884 24.6828C121.974 24.6828 125.427 21.5203 125.427 15.4192C125.427 9.4104 122.737 6.39307 119.135 6.39307Z" fill="#231F20"/>
  </g>
  <path fill-rule="evenodd" clip-rule="evenodd" d="M67.7823 18.2253C67.5561 18.1156 67.2865 18.2076 67.1646 18.4344C66.1224 20.3752 65.1324 21.3876 62.7959 21.3876C61.1849 21.3876 58.2741 20.7551 58.2741 14.7345C58.2741 8.71335 60.0642 7.91978 61.4089 7.91978C62.875 7.91978 63.8755 8.91731 63.9633 12.3715C63.9705 12.6503 63.7541 12.8812 63.4867 12.8812H60.4623C60.1987 12.8812 59.9856 13.1028 59.9856 13.3765V14.0855C59.9856 14.3592 60.1982 14.5814 60.4612 14.5814H68.0519C68.321 14.5814 68.5362 14.3489 68.528 14.0689C68.3419 7.82266 64.7474 6.18182 61.7554 6.18182C56.8344 6.18182 53.2998 10.3462 53.2998 14.9968C53.2998 19.6468 55.5017 23.9545 61.5484 23.9545C65.8665 23.9545 67.5078 21.379 68.4462 19.0726C68.5461 18.8275 68.4396 18.5441 68.2073 18.4316L67.7823 18.2253Z" fill="#231F20"/>
</svg>